<svg height="512pt" viewBox="0 0 512.001 512" width="512pt" xmlns="http://www.w3.org/2000/svg"><path d="m136 512-12.203125-17.09375c-1.347656-1.875-32.796875-43.203125-32.796875-88.90625 0-69.59375 34.4375-75 45-75s45 5.40625 45 75c0 45.703125-31.449219 87.03125-32.796875 88.90625zm0 0" fill="#ffbd86"/><path d="m376 510.785156-10.664062-10.753906c-1.390626-1.417969-34.335938-31.980469-34.335938-79.03125 0-43.34375 14.078125-90 45-90s45 46.65625 45 90c0 47.050781-32.945312 77.613281-34.335938 79.03125zm0 0" fill="#f6a96c"/><path d="m426.304688 215.308594-61.4375 29.96875 22.703124 59.636718c46.898438-6.757812 89.679688-32.773437 124.429688-56.132812-19.058594-12.929688-42.386719-31.375-85.695312-33.472656zm0 0" fill="#ffbd86"/><path d="m380.789062 172.3125-49.65625 28.15625 30.132813 72.554688c11-1.40625 23.933594-5.289063 39.550781-11.898438 48.214844-20.4375 86.480469-69.023438 111.183594-101.628906-36.726562-1.980469-81.558594-5.40625-131.210938 12.816406zm0 0" fill="#ea9b58"/><path d="m337.476562 130.523438-4.382812 4.65625-7.9375 50.332031 3.515625 26.105469 11.953125 27.507812c18.824219-8.171875 41.324219-25.019531 61.714844-46.214844 36.539062-37.960937 60.558594-101.441406 77.269531-145.210937-41.097656 17.539062-104.394531 43.601562-142.132813 82.824219zm0 0" fill="#ffbd86"/><path d="m373.921875 1c-32.71875 29.898438-79.710937 72.117188-99.199219 122.316406-1.554687 4.027344-3.003906 8.023438-4.351562 11.980469l-1.582032 39.636719 50.082032 48.050781c14.457031-14.78125 28.960937-39.246094 39.769531-67.121094 18.757813-48.375 16.808594-109.59375 15.28125-154.863281zm0 0" fill="#ea9b58"/><path d="m83.117188 215.175781c-42.222657 1.707031-64.675782 19.8125-83.117188 33.882813 33.613281 24.253906 73.976562 49.554687 119.988281 56.015625l62.433594-35.527344zm0 0" fill="#fed2a4"/><path d="m133.027344 170.148438c-49.761719-18.203126-100.007813-14.417969-133.027344-12.628907 26.378906 33.566407 64.65625 80.953125 113.382812 101.585938 17.269532 7.3125 31.363282 11.324219 43.082032 12.277343l26.25-43.054687zm0 0" fill="#f6a96c"/><path d="m178.890625 135.3125-4.511719-4.804688c-36.53125-37.96875-99.023437-64.417968-142.117187-82.808593 16.070312 42.101562 39.839843 106.328125 77.269531 145.210937 20.402344 21.210938 42.933594 38.070313 61.816406 46.257813l11.921875-27.539063zm0 0" fill="#fed2a4"/><path d="m237.515625 123.199219c-18.902344-48.664063-65.316406-91.28125-99.203125-122.199219-1.484375 43.914062-4.019531 104.984375 15.28125 154.761719 10.824219 27.875 25.3125 52.324219 39.753906 67.089843l20.796875-11.097656 26.019531-81.421875zm0 0" fill="#f6a96c"/><path d="m301 136c0 24.601562-3.300781 48.300781-9 66.597656h-72c-5.699219-18.296875-9-41.996094-9-66.597656 0-52.5 25.199219-98.199219 45-136 19.5 37.199219 45 83.800781 45 136zm0 0" fill="#fed2a4"/><path d="m301 136c0 24.601562-3.300781 48.300781-9 66.597656h-36v-202.597656c19.5 37.199219 45 83.800781 45 136zm0 0" fill="#ffbd86"/><path d="m386.800781 282.402344-43.199219 30.597656c-22.800781-12.300781-47.699218-19.199219-72.601562-21.300781l-15-35.699219-15 35.699219c-24.902344 2.101562-49.800781 9-72.597656 21.300781l-43.203125-30.597656c15.300781-59.703125 69-101.402344 130.800781-101.402344s115.5 41.699219 130.800781 101.402344zm0 0" fill="#ff4b00"/><path d="m386.800781 282.402344-43.199219 30.597656c-22.800781-12.300781-47.699218-19.199219-72.601562-21.300781l-15-35.699219v-75c61.800781 0 115.5 41.699219 130.800781 101.402344zm0 0" fill="#cc1e0d"/><path d="m136 361c-24.8125 0-45-20.183594-45-45 0-24.8125 20.1875-45 45-45s45 20.1875 45 45c0 24.816406-20.1875 45-45 45zm0 0" fill="#ff7816"/><path d="m136 331c-8.277344 0-15-6.722656-15-15s6.722656-15 15-15 15 6.722656 15 15-6.722656 15-15 15zm0 0" fill="#99503d"/><path d="m376 361c-24.8125 0-45-20.183594-45-45 0-24.8125 20.1875-45 45-45s45 20.1875 45 45c0 24.816406-20.1875 45-45 45zm0 0" fill="#ff4b00"/><path d="m376 331c-8.277344 0-15-6.722656-15-15s6.722656-15 15-15 15 6.722656 15 15-6.722656 15-15 15zm0 0" fill="#804231"/><path d="m271 241v50.699219c-4.800781-.296875-9.902344-.296875-15-.296875s-10.199219 0-15 .296875v-50.699219zm0 0" fill="#99503d"/><path d="m271 241v50.699219c-4.800781-.296875-9.902344-.296875-15-.296875v-50.402344zm0 0" fill="#804231"/></svg>