<svg height="512pt" viewBox="0 -16 512 512" width="512pt" xmlns="http://www.w3.org/2000/svg"><path d="m501.199219 406.199219c6.902343 8.101562 10.800781 18 10.800781 28.800781 0 24.898438-21.097656 45-46 45-15.300781 0-29.097656-8.101562-37.199219-20.398438-56.699219 12.898438-114.601562 19.199219-172.800781 19.199219s-116.101562-6.300781-172.800781-19.199219c-8.101563 12.296876-21.898438 20.398438-37.199219 20.398438-24.902344 0-46-20.101562-46-45 0-10.800781 3.898438-20.699219 10.800781-28.800781-7.199219-25.800781-7.199219-66.597657 0-92.402344-6.902343-8.097656-10.800781-17.996094-10.800781-28.796875 0-24.902344 21.097656-45 46-45 15.300781 0 29.097656 8.097656 37.199219 20.398438 9.601562-2.097657 19.199219-4.199219 29.101562-6h287.398438c9.902343 1.800781 19.5 3.902343 29.101562 6 8.101563-12.300782 21.898438-20.398438 37.199219-20.398438 24.902344 0 46 20.097656 46 45 0 10.800781-3.898438 20.699219-10.800781 28.800781 7.199219 25.800781 7.199219 66.597657 0 92.398438zm0 0" fill="#ff4b00"/><path d="m501.199219 406.199219c6.902343 8.101562 10.800781 18 10.800781 28.800781 0 24.898438-21.097656 45-46 45-15.300781 0-29.097656-8.101562-37.199219-20.398438-56.699219 12.898438-114.601562 19.199219-172.800781 19.199219v-224.402343h143.699219c9.902343 1.800781 19.5 3.902343 29.101562 6 8.101563-12.300782 21.898438-20.398438 37.199219-20.398438 24.902344 0 46 20.097656 46 45 0 10.800781-3.898438 20.699219-10.800781 28.800781 7.199219 25.800781 7.199219 66.597657 0 92.398438zm0 0" fill="#dd3400"/><path d="m166 90c-29.398438 0-56.234375 17.3125-68.363281 44.121094l68.363281 75.878906 53.832031-97.222656c-14.253906-14.691406-33.367187-22.777344-53.832031-22.777344zm0 0" fill="#ff7816"/><path d="m346 90c-20.464844 0-39.578125 8.085938-53.832031 22.777344l53.832031 97.222656 68.363281-75.878906c-12.128906-26.808594-38.964843-44.121094-68.363281-44.121094zm0 0" fill="#dd3400"/><path d="m473.199219 110.097656-66.898438 159.902344-150.300781 30-150.300781-30-66.898438-159.902344 39-24.597656 85.199219 85.199219 64.800781-107.699219h56.398438l64.800781 107.699219 85.199219-85.199219zm0 0" fill="#fdbf00"/><path d="m473.199219 110.097656-66.898438 159.902344-150.300781 30v-237h28.199219l64.800781 107.699219 85.199219-85.199219zm0 0" fill="#ff7816"/><path d="m46 120c-24.8125 0-46-20.1875-46-45s21.1875-45 46-45 45 20.1875 45 45-20.1875 45-45 45zm0 0" fill="#ffd400"/><path d="m256 0c-24.902344 0-45 20.097656-45 45s20.097656 45 45 45 45-20.097656 45-45-20.097656-45-45-45zm0 0" fill="#ffd400"/><path d="m466 120c-24.8125 0-45-20.1875-45-45s20.1875-45 45-45 46 20.1875 46 45-21.1875 45-46 45zm0 0" fill="#ff9f00"/><path d="m301 45c0 24.902344-20.097656 45-45 45v-90c24.902344 0 45 20.097656 45 45zm0 0" fill="#ff9f00"/><path d="m406.300781 270-36.300781 86.699219h-228l-36.300781-86.699219zm0 0" fill="#ffd400"/><path d="m406.300781 270-36.300781 86.699219h-114v-86.699219zm0 0" fill="#ff9f00"/><path d="m418.597656 381.597656-25.199218 16.800782c-15.898438-24-42.597657-38.398438-71.398438-38.398438h-132c-28.800781 0-55.5 14.398438-71.398438 38.398438l-25.199218-16.800782c21.597656-32.398437 57.898437-51.597656 96.597656-51.597656h132c38.699219 0 75 19.199219 96.597656 51.597656zm0 0" fill="#ff7816"/><path d="m418.597656 381.597656-25.199218 16.800782c-15.898438-24-42.597657-38.398438-71.398438-38.398438h-66v-30h66c38.699219 0 75 19.199219 96.597656 51.597656zm0 0" fill="#ff4b00"/></svg>